<mxfile host="app.diagrams.net" modified="2022-01-03T10:28:50.209Z" agent="5.0 (Windows NT 10.0; Win64; x64) AppleWebKit/537.36 (KHTML, like Gecko) Chrome/95.0.4638.54 Safari/537.36" etag="fVdOVjrh2DxOOx-Upu04" version="16.1.2" type="github">
  <diagram name="Page-1" id="03018318-947c-dd8e-b7a3-06fadd420f32">
    <mxGraphModel dx="1654" dy="885" grid="1" gridSize="10" guides="1" tooltips="1" connect="1" arrows="1" fold="1" page="1" pageScale="1" pageWidth="1100" pageHeight="850" background="none" math="0" shadow="0">
      <root>
        <mxCell id="0" />
        <mxCell id="1" parent="0" />
        <mxCell id="677b7b8949515195-1" value="" style="whiteSpace=wrap;html=1;rounded=0;shadow=0;labelBackgroundColor=none;strokeColor=#000000;strokeWidth=1;fillColor=none;fontFamily=Verdana;fontSize=12;fontColor=#000000;align=center;comic=1;" parent="1" vertex="1">
          <mxGeometry x="10" y="69" width="1060" height="810" as="geometry" />
        </mxCell>
        <mxCell id="677b7b8949515195-2" value="主从复制" style="whiteSpace=wrap;html=1;rounded=0;shadow=0;labelBackgroundColor=none;strokeWidth=1;fontFamily=Verdana;fontSize=28;align=center;comic=1;" parent="1" vertex="1">
          <mxGeometry x="20" y="80" width="190" height="50" as="geometry" />
        </mxCell>
        <mxCell id="677b7b8949515195-9" value="" style="line;strokeWidth=1;html=1;rounded=0;shadow=0;labelBackgroundColor=none;fillColor=none;fontFamily=Verdana;fontSize=14;fontColor=#000000;align=center;comic=1;" parent="1" vertex="1">
          <mxGeometry x="20" y="140" width="1060" height="10" as="geometry" />
        </mxCell>
        <mxCell id="677b7b8949515195-15" value="&lt;div&gt;&lt;span&gt;1、当启动一个slava去连接master，slave会发送一个ping命令给master&lt;/span&gt;&lt;/div&gt;&lt;div&gt;&lt;span&gt;2、连接成功master给slave返回pong&lt;/span&gt;&lt;/div&gt;&lt;div&gt;&lt;span&gt;3、如果是第一次连接，master 会生成一份最新的RDB文件，同时master不阻塞正常运行，master内存中数据还在继续更新&lt;/span&gt;&lt;/div&gt;&lt;div&gt;&lt;span&gt;4、master将生成的rdb发送给slave，slave首先将RDB快照保存到自己本地，然后再加载到slave内存中&lt;/span&gt;&lt;/div&gt;&lt;div&gt;&lt;span&gt;5、然后master 将最新的数据同步给slave&lt;/span&gt;&lt;/div&gt;&lt;div&gt;&lt;span&gt;&lt;br&gt;&lt;/span&gt;&lt;/div&gt;&lt;div&gt;如果slave不是第一次连接master，master只会将差额数据发给slave&lt;/div&gt;&lt;div&gt;&lt;span&gt;&lt;br&gt;&lt;/span&gt;&lt;/div&gt;" style="whiteSpace=wrap;html=1;rounded=0;shadow=0;labelBackgroundColor=none;strokeWidth=1;fillColor=none;fontFamily=Verdana;fontSize=12;align=left;verticalAlign=top;spacing=10;comic=1;" parent="1" vertex="1">
          <mxGeometry x="50" y="640" width="780" height="200" as="geometry" />
        </mxCell>
        <mxCell id="677b7b8949515195-25" value="" style="whiteSpace=wrap;html=1;rounded=0;shadow=0;labelBackgroundColor=none;strokeWidth=1;fillColor=none;fontFamily=Verdana;fontSize=12;align=center;comic=1;" parent="1" vertex="1">
          <mxGeometry x="840" y="230" width="230" height="400" as="geometry" />
        </mxCell>
        <mxCell id="677b7b8949515195-26" value="" style="whiteSpace=wrap;html=1;rounded=0;shadow=0;labelBackgroundColor=none;strokeWidth=1;fillColor=none;fontFamily=Verdana;fontSize=12;align=center;comic=1;" parent="1" vertex="1">
          <mxGeometry x="840" y="640" width="230" height="200" as="geometry" />
        </mxCell>
        <mxCell id="xZPo5ttP8VYS0tnIWsl4-2" value="" style="rounded=0;whiteSpace=wrap;html=1;" vertex="1" parent="1">
          <mxGeometry x="50" y="225" width="780" height="400" as="geometry" />
        </mxCell>
        <mxCell id="xZPo5ttP8VYS0tnIWsl4-33" style="edgeStyle=orthogonalEdgeStyle;rounded=0;orthogonalLoop=1;jettySize=auto;html=1;exitX=1;exitY=0.75;exitDx=0;exitDy=0;entryX=0;entryY=0.75;entryDx=0;entryDy=0;" edge="1" parent="1" source="xZPo5ttP8VYS0tnIWsl4-29" target="xZPo5ttP8VYS0tnIWsl4-30">
          <mxGeometry relative="1" as="geometry" />
        </mxCell>
        <mxCell id="xZPo5ttP8VYS0tnIWsl4-36" style="rounded=0;orthogonalLoop=1;jettySize=auto;html=1;exitX=0;exitY=0.25;exitDx=0;exitDy=0;entryX=1;entryY=0;entryDx=0;entryDy=27.5;entryPerimeter=0;" edge="1" parent="1" source="xZPo5ttP8VYS0tnIWsl4-29" target="xZPo5ttP8VYS0tnIWsl4-31">
          <mxGeometry relative="1" as="geometry" />
        </mxCell>
        <mxCell id="xZPo5ttP8VYS0tnIWsl4-43" style="edgeStyle=orthogonalEdgeStyle;rounded=0;orthogonalLoop=1;jettySize=auto;html=1;exitX=0.5;exitY=0;exitDx=0;exitDy=0;entryX=0.25;entryY=0;entryDx=0;entryDy=0;" edge="1" parent="1" source="xZPo5ttP8VYS0tnIWsl4-29" target="xZPo5ttP8VYS0tnIWsl4-30">
          <mxGeometry relative="1" as="geometry" />
        </mxCell>
        <mxCell id="xZPo5ttP8VYS0tnIWsl4-29" value="master node" style="rounded=1;whiteSpace=wrap;html=1;fillColor=#94E2FF;" vertex="1" parent="1">
          <mxGeometry x="320" y="340" width="120" height="60" as="geometry" />
        </mxCell>
        <mxCell id="xZPo5ttP8VYS0tnIWsl4-32" style="edgeStyle=orthogonalEdgeStyle;rounded=0;orthogonalLoop=1;jettySize=auto;html=1;exitX=0;exitY=0.25;exitDx=0;exitDy=0;entryX=1;entryY=0.25;entryDx=0;entryDy=0;" edge="1" parent="1" source="xZPo5ttP8VYS0tnIWsl4-30" target="xZPo5ttP8VYS0tnIWsl4-29">
          <mxGeometry relative="1" as="geometry" />
        </mxCell>
        <mxCell id="xZPo5ttP8VYS0tnIWsl4-30" value="slave node" style="rounded=1;whiteSpace=wrap;html=1;fillColor=#007FFF;" vertex="1" parent="1">
          <mxGeometry x="650" y="340" width="120" height="60" as="geometry" />
        </mxCell>
        <mxCell id="xZPo5ttP8VYS0tnIWsl4-39" style="edgeStyle=orthogonalEdgeStyle;rounded=0;orthogonalLoop=1;jettySize=auto;html=1;exitX=0.5;exitY=0;exitDx=0;exitDy=0;exitPerimeter=0;entryX=0.5;entryY=0;entryDx=0;entryDy=0;" edge="1" parent="1" source="xZPo5ttP8VYS0tnIWsl4-31" target="xZPo5ttP8VYS0tnIWsl4-30">
          <mxGeometry relative="1" as="geometry">
            <Array as="points">
              <mxPoint x="115" y="290" />
              <mxPoint x="710" y="290" />
            </Array>
          </mxGeometry>
        </mxCell>
        <mxCell id="xZPo5ttP8VYS0tnIWsl4-31" value="RDB" style="shape=cylinder3;whiteSpace=wrap;html=1;boundedLbl=1;backgroundOutline=1;size=15;fillColor=#9999FF;" vertex="1" parent="1">
          <mxGeometry x="85" y="325" width="60" height="80" as="geometry" />
        </mxCell>
        <mxCell id="xZPo5ttP8VYS0tnIWsl4-34" value="1" style="text;html=1;strokeColor=none;fillColor=none;align=center;verticalAlign=middle;whiteSpace=wrap;rounded=0;" vertex="1" parent="1">
          <mxGeometry x="520" y="320" width="60" height="30" as="geometry" />
        </mxCell>
        <mxCell id="xZPo5ttP8VYS0tnIWsl4-35" value="2" style="text;html=1;strokeColor=none;fillColor=none;align=center;verticalAlign=middle;whiteSpace=wrap;rounded=0;" vertex="1" parent="1">
          <mxGeometry x="520" y="360" width="60" height="30" as="geometry" />
        </mxCell>
        <mxCell id="xZPo5ttP8VYS0tnIWsl4-37" value="3" style="text;html=1;strokeColor=none;fillColor=none;align=center;verticalAlign=middle;whiteSpace=wrap;rounded=0;" vertex="1" parent="1">
          <mxGeometry x="210" y="330" width="60" height="30" as="geometry" />
        </mxCell>
        <mxCell id="xZPo5ttP8VYS0tnIWsl4-40" value="4" style="text;html=1;strokeColor=none;fillColor=none;align=center;verticalAlign=middle;whiteSpace=wrap;rounded=0;" vertex="1" parent="1">
          <mxGeometry x="360" y="260" width="60" height="30" as="geometry" />
        </mxCell>
        <mxCell id="xZPo5ttP8VYS0tnIWsl4-44" value="5" style="text;html=1;strokeColor=none;fillColor=none;align=center;verticalAlign=middle;whiteSpace=wrap;rounded=0;" vertex="1" parent="1">
          <mxGeometry x="500" y="295" width="60" height="30" as="geometry" />
        </mxCell>
      </root>
    </mxGraphModel>
  </diagram>
</mxfile>
